<?xml version="1.0" encoding="UTF-8" standalone="no"?>
<!DOCTYPE svg PUBLIC "-//W3C//DTD SVG 1.1//EN"
 "http://www.w3.org/Graphics/SVG/1.1/DTD/svg11.dtd">
<!-- Generated by graphviz version 8.0.5 (20230430.1635)
 -->
<!-- Title: G Pages: 1 -->
<svg width="1171pt" height="476pt"
 viewBox="0.00 0.00 1171.08 476.00" xmlns="http://www.w3.org/2000/svg" xmlns:xlink="http://www.w3.org/1999/xlink">
<g id="graph0" class="graph" transform="scale(1 1) rotate(0) translate(4 472)">
<title>G</title>
<polygon fill="white" stroke="none" points="-4,4 -4,-472 1167.08,-472 1167.08,4 -4,4"/>
<!-- NODO0 -->
<g id="node1" class="node">
<title>NODO0</title>
<ellipse fill="none" stroke="black" cx="539" cy="-450" rx="60.54" ry="18"/>
<text text-anchor="middle" x="539" y="-444.57" font-family="Times New Roman,serif" font-size="14.00">Instrucciones</text>
</g>
<!-- NODO1 -->
<g id="node2" class="node">
<title>NODO1</title>
<ellipse fill="none" stroke="black" cx="209" cy="-378" rx="72.52" ry="18"/>
<text text-anchor="middle" x="209" y="-372.57" font-family="Times New Roman,serif" font-size="14.00">Declaracion Any</text>
</g>
<!-- NODO0&#45;&gt;NODO1 -->
<g id="edge7" class="edge">
<title>NODO0&#45;&gt;NODO1</title>
<path fill="none" stroke="black" d="M490.66,-438.75C433.29,-426.58 337.4,-406.24 273.68,-392.72"/>
<polygon fill="black" stroke="black" points="274.46,-389.1 263.95,-390.44 273.01,-395.94 274.46,-389.1"/>
</g>
<!-- NODO8 -->
<g id="node9" class="node">
<title>NODO8</title>
<ellipse fill="none" stroke="black" cx="539" cy="-378" rx="72.52" ry="18"/>
<text text-anchor="middle" x="539" y="-372.57" font-family="Times New Roman,serif" font-size="14.00">Declaracion Any</text>
</g>
<!-- NODO0&#45;&gt;NODO8 -->
<g id="edge14" class="edge">
<title>NODO0&#45;&gt;NODO8</title>
<path fill="none" stroke="black" d="M539,-431.7C539,-424.24 539,-415.32 539,-406.97"/>
<polygon fill="black" stroke="black" points="542.5,-407.1 539,-397.1 535.5,-407.1 542.5,-407.1"/>
</g>
<!-- NODO15 -->
<g id="node16" class="node">
<title>NODO15</title>
<ellipse fill="none" stroke="black" cx="860" cy="-378" rx="48.07" ry="18"/>
<text text-anchor="middle" x="860" y="-372.57" font-family="Times New Roman,serif" font-size="14.00">Impresion</text>
</g>
<!-- NODO0&#45;&gt;NODO15 -->
<g id="edge35" class="edge">
<title>NODO0&#45;&gt;NODO15</title>
<path fill="none" stroke="black" d="M586.71,-438.6C646.19,-425.63 747.45,-403.54 808.6,-390.21"/>
<polygon fill="black" stroke="black" points="809.14,-393.46 818.16,-387.91 807.65,-386.62 809.14,-393.46"/>
</g>
<!-- NODO2 -->
<g id="node3" class="node">
<title>NODO2</title>
<ellipse fill="none" stroke="black" cx="27" cy="-306" rx="27" ry="18"/>
<text text-anchor="middle" x="27" y="-300.57" font-family="Times New Roman,serif" font-size="14.00">Let</text>
</g>
<!-- NODO1&#45;&gt;NODO2 -->
<g id="edge1" class="edge">
<title>NODO1&#45;&gt;NODO2</title>
<path fill="none" stroke="black" d="M167.07,-362.94C137.67,-352.8 97.6,-338.41 63,-324 61.33,-323.31 59.63,-322.58 57.92,-321.83"/>
<polygon fill="black" stroke="black" points="59.73,-318.35 49.17,-317.4 56.83,-324.72 59.73,-318.35"/>
</g>
<!-- NODO3 -->
<g id="node4" class="node">
<title>NODO3</title>
<ellipse fill="none" stroke="black" cx="99" cy="-306" rx="27" ry="18"/>
<text text-anchor="middle" x="99" y="-300.57" font-family="Times New Roman,serif" font-size="14.00">b</text>
</g>
<!-- NODO1&#45;&gt;NODO3 -->
<g id="edge2" class="edge">
<title>NODO1&#45;&gt;NODO3</title>
<path fill="none" stroke="black" d="M183.49,-360.76C166.67,-350.06 144.64,-336.04 127.29,-325"/>
<polygon fill="black" stroke="black" points="129.51,-321.63 119.19,-319.21 125.75,-327.53 129.51,-321.63"/>
</g>
<!-- NODO4 -->
<g id="node5" class="node">
<title>NODO4</title>
<ellipse fill="none" stroke="black" cx="171" cy="-306" rx="27" ry="18"/>
<text text-anchor="middle" x="171" y="-300.57" font-family="Times New Roman,serif" font-size="14.00">=</text>
</g>
<!-- NODO1&#45;&gt;NODO4 -->
<g id="edge3" class="edge">
<title>NODO1&#45;&gt;NODO4</title>
<path fill="none" stroke="black" d="M199.61,-359.7C195.2,-351.58 189.86,-341.74 184.99,-332.76"/>
<polygon fill="black" stroke="black" points="187.61,-331.26 179.76,-324.14 181.46,-334.6 187.61,-331.26"/>
</g>
<!-- NODO5 -->
<g id="node6" class="node">
<title>NODO5</title>
<ellipse fill="none" stroke="black" cx="247" cy="-306" rx="31.1" ry="18"/>
<text text-anchor="middle" x="247" y="-300.57" font-family="Times New Roman,serif" font-size="14.00">Valor</text>
</g>
<!-- NODO1&#45;&gt;NODO5 -->
<g id="edge5" class="edge">
<title>NODO1&#45;&gt;NODO5</title>
<path fill="none" stroke="black" d="M218.39,-359.7C222.74,-351.7 227.99,-342.02 232.8,-333.15"/>
<polygon fill="black" stroke="black" points="236.28,-335.08 237.98,-324.62 230.13,-331.74 236.28,-335.08"/>
</g>
<!-- NODO7 -->
<g id="node8" class="node">
<title>NODO7</title>
<ellipse fill="none" stroke="black" cx="323" cy="-306" rx="27" ry="18"/>
<text text-anchor="middle" x="323" y="-300.57" font-family="Times New Roman,serif" font-size="14.00">;</text>
</g>
<!-- NODO1&#45;&gt;NODO7 -->
<g id="edge6" class="edge">
<title>NODO1&#45;&gt;NODO7</title>
<path fill="none" stroke="black" d="M235.44,-360.76C253.14,-349.9 276.42,-335.6 294.53,-324.48"/>
<polygon fill="black" stroke="black" points="295.78,-327.21 302.47,-318.99 292.11,-321.24 295.78,-327.21"/>
</g>
<!-- NODO6 -->
<g id="node7" class="node">
<title>NODO6</title>
<ellipse fill="none" stroke="black" cx="247" cy="-234" rx="27.61" ry="18"/>
<text text-anchor="middle" x="247" y="-228.57" font-family="Times New Roman,serif" font-size="14.00">false</text>
</g>
<!-- NODO5&#45;&gt;NODO6 -->
<g id="edge4" class="edge">
<title>NODO5&#45;&gt;NODO6</title>
<path fill="none" stroke="black" d="M247,-287.7C247,-280.24 247,-271.32 247,-262.97"/>
<polygon fill="black" stroke="black" points="250.5,-263.1 247,-253.1 243.5,-263.1 250.5,-263.1"/>
</g>
<!-- NODO9 -->
<g id="node10" class="node">
<title>NODO9</title>
<ellipse fill="none" stroke="black" cx="395" cy="-306" rx="27" ry="18"/>
<text text-anchor="middle" x="395" y="-300.57" font-family="Times New Roman,serif" font-size="14.00">Let</text>
</g>
<!-- NODO8&#45;&gt;NODO9 -->
<g id="edge8" class="edge">
<title>NODO8&#45;&gt;NODO9</title>
<path fill="none" stroke="black" d="M507.04,-361.46C482.83,-349.69 449.75,-333.61 425.82,-321.98"/>
<polygon fill="black" stroke="black" points="427.7,-318.52 417.18,-317.29 424.64,-324.81 427.7,-318.52"/>
</g>
<!-- NODO10 -->
<g id="node11" class="node">
<title>NODO10</title>
<ellipse fill="none" stroke="black" cx="467" cy="-306" rx="27" ry="18"/>
<text text-anchor="middle" x="467" y="-300.57" font-family="Times New Roman,serif" font-size="14.00">a</text>
</g>
<!-- NODO8&#45;&gt;NODO10 -->
<g id="edge9" class="edge">
<title>NODO8&#45;&gt;NODO10</title>
<path fill="none" stroke="black" d="M521.57,-360.05C511.98,-350.73 499.97,-339.06 489.66,-329.03"/>
<polygon fill="black" stroke="black" points="492.45,-326.89 482.84,-322.42 487.57,-331.9 492.45,-326.89"/>
</g>
<!-- NODO11 -->
<g id="node12" class="node">
<title>NODO11</title>
<ellipse fill="none" stroke="black" cx="539" cy="-306" rx="27" ry="18"/>
<text text-anchor="middle" x="539" y="-300.57" font-family="Times New Roman,serif" font-size="14.00">=</text>
</g>
<!-- NODO8&#45;&gt;NODO11 -->
<g id="edge10" class="edge">
<title>NODO8&#45;&gt;NODO11</title>
<path fill="none" stroke="black" d="M539,-359.7C539,-352.24 539,-343.32 539,-334.97"/>
<polygon fill="black" stroke="black" points="542.5,-335.1 539,-325.1 535.5,-335.1 542.5,-335.1"/>
</g>
<!-- NODO12 -->
<g id="node13" class="node">
<title>NODO12</title>
<ellipse fill="none" stroke="black" cx="615" cy="-306" rx="31.1" ry="18"/>
<text text-anchor="middle" x="615" y="-300.57" font-family="Times New Roman,serif" font-size="14.00">Valor</text>
</g>
<!-- NODO8&#45;&gt;NODO12 -->
<g id="edge12" class="edge">
<title>NODO8&#45;&gt;NODO12</title>
<path fill="none" stroke="black" d="M557.01,-360.41C567.15,-351.07 579.96,-339.28 590.95,-329.15"/>
<polygon fill="black" stroke="black" points="592.94,-332.15 597.93,-322.8 588.2,-327 592.94,-332.15"/>
</g>
<!-- NODO14 -->
<g id="node15" class="node">
<title>NODO14</title>
<ellipse fill="none" stroke="black" cx="691" cy="-306" rx="27" ry="18"/>
<text text-anchor="middle" x="691" y="-300.57" font-family="Times New Roman,serif" font-size="14.00">;</text>
</g>
<!-- NODO8&#45;&gt;NODO14 -->
<g id="edge13" class="edge">
<title>NODO8&#45;&gt;NODO14</title>
<path fill="none" stroke="black" d="M572.81,-361.69C595.97,-351.16 627.39,-336.83 655,-324 656.45,-323.33 657.93,-322.64 659.43,-321.94"/>
<polygon fill="black" stroke="black" points="660.75,-324.71 668.32,-317.29 657.78,-318.37 660.75,-324.71"/>
</g>
<!-- NODO13 -->
<g id="node14" class="node">
<title>NODO13</title>
<ellipse fill="none" stroke="black" cx="615" cy="-234" rx="27" ry="18"/>
<text text-anchor="middle" x="615" y="-228.57" font-family="Times New Roman,serif" font-size="14.00">true</text>
</g>
<!-- NODO12&#45;&gt;NODO13 -->
<g id="edge11" class="edge">
<title>NODO12&#45;&gt;NODO13</title>
<path fill="none" stroke="black" d="M615,-287.7C615,-280.24 615,-271.32 615,-262.97"/>
<polygon fill="black" stroke="black" points="618.5,-263.1 615,-253.1 611.5,-263.1 618.5,-263.1"/>
</g>
<!-- NODO16 -->
<g id="node17" class="node">
<title>NODO16</title>
<ellipse fill="none" stroke="black" cx="797" cy="-306" rx="61.04" ry="18"/>
<text text-anchor="middle" x="797" y="-300.57" font-family="Times New Roman,serif" font-size="14.00">Console.log (</text>
</g>
<!-- NODO15&#45;&gt;NODO16 -->
<g id="edge15" class="edge">
<title>NODO15&#45;&gt;NODO16</title>
<path fill="none" stroke="black" d="M845.07,-360.41C837.3,-351.78 827.66,-341.06 819.05,-331.5"/>
<polygon fill="black" stroke="black" points="822.11,-329.56 812.82,-324.47 816.91,-334.24 822.11,-329.56"/>
</g>
<!-- NODO17 -->
<g id="node18" class="node">
<title>NODO17</title>
<ellipse fill="none" stroke="black" cx="924" cy="-306" rx="48.07" ry="18"/>
<text text-anchor="middle" x="924" y="-300.57" font-family="Times New Roman,serif" font-size="14.00">Expresion</text>
</g>
<!-- NODO15&#45;&gt;NODO17 -->
<g id="edge33" class="edge">
<title>NODO15&#45;&gt;NODO17</title>
<path fill="none" stroke="black" d="M874.84,-360.76C882.92,-351.93 893.07,-340.83 902.04,-331.01"/>
<polygon fill="black" stroke="black" points="904.07,-333.89 908.24,-324.15 898.91,-329.17 904.07,-333.89"/>
</g>
<!-- NODO35 -->
<g id="node36" class="node">
<title>NODO35</title>
<ellipse fill="none" stroke="black" cx="1017" cy="-306" rx="27" ry="18"/>
<text text-anchor="middle" x="1017" y="-300.57" font-family="Times New Roman,serif" font-size="14.00">)</text>
</g>
<!-- NODO15&#45;&gt;NODO35 -->
<g id="edge34" class="edge">
<title>NODO15&#45;&gt;NODO35</title>
<path fill="none" stroke="black" d="M890.69,-363.84C915.21,-353.26 950.42,-337.91 981,-324 982.45,-323.34 983.94,-322.66 985.44,-321.97"/>
<polygon fill="black" stroke="black" points="986.76,-324.75 994.34,-317.35 983.8,-318.4 986.76,-324.75"/>
</g>
<!-- NODO18 -->
<g id="node19" class="node">
<title>NODO18</title>
<ellipse fill="none" stroke="black" cx="808" cy="-234" rx="48.07" ry="18"/>
<text text-anchor="middle" x="808" y="-228.57" font-family="Times New Roman,serif" font-size="14.00">Expresion</text>
</g>
<!-- NODO17&#45;&gt;NODO18 -->
<g id="edge30" class="edge">
<title>NODO17&#45;&gt;NODO18</title>
<path fill="none" stroke="black" d="M899.4,-290.15C882.64,-280.04 860.23,-266.52 841.79,-255.39"/>
<polygon fill="black" stroke="black" points="843.94,-251.99 833.57,-249.82 840.32,-257.99 843.94,-251.99"/>
</g>
<!-- NODO28 -->
<g id="node29" class="node">
<title>NODO28</title>
<ellipse fill="none" stroke="black" cx="924" cy="-234" rx="27" ry="18"/>
<text text-anchor="middle" x="924" y="-228.57" font-family="Times New Roman,serif" font-size="14.00">||</text>
</g>
<!-- NODO17&#45;&gt;NODO28 -->
<g id="edge31" class="edge">
<title>NODO17&#45;&gt;NODO28</title>
<path fill="none" stroke="black" d="M924,-287.7C924,-280.24 924,-271.32 924,-262.97"/>
<polygon fill="black" stroke="black" points="927.5,-263.1 924,-253.1 920.5,-263.1 927.5,-263.1"/>
</g>
<!-- NODO29 -->
<g id="node30" class="node">
<title>NODO29</title>
<ellipse fill="none" stroke="black" cx="1028" cy="-234" rx="48.07" ry="18"/>
<text text-anchor="middle" x="1028" y="-228.57" font-family="Times New Roman,serif" font-size="14.00">Expresion</text>
</g>
<!-- NODO17&#45;&gt;NODO29 -->
<g id="edge32" class="edge">
<title>NODO17&#45;&gt;NODO29</title>
<path fill="none" stroke="black" d="M946.57,-289.81C961.15,-280 980.34,-267.08 996.42,-256.25"/>
<polygon fill="black" stroke="black" points="998.14,-258.65 1004.48,-250.16 994.23,-252.84 998.14,-258.65"/>
</g>
<!-- NODO19 -->
<g id="node20" class="node">
<title>NODO19</title>
<ellipse fill="none" stroke="black" cx="709" cy="-162" rx="48.07" ry="18"/>
<text text-anchor="middle" x="709" y="-156.57" font-family="Times New Roman,serif" font-size="14.00">Expresion</text>
</g>
<!-- NODO18&#45;&gt;NODO19 -->
<g id="edge22" class="edge">
<title>NODO18&#45;&gt;NODO19</title>
<path fill="none" stroke="black" d="M786.52,-217.81C772.73,-208.06 754.62,-195.26 739.37,-184.48"/>
<polygon fill="black" stroke="black" points="741.97,-181.32 731.78,-178.4 737.93,-187.03 741.97,-181.32"/>
</g>
<!-- NODO25 -->
<g id="node26" class="node">
<title>NODO25</title>
<ellipse fill="none" stroke="black" cx="802" cy="-162" rx="27" ry="18"/>
<text text-anchor="middle" x="802" y="-156.57" font-family="Times New Roman,serif" font-size="14.00">||</text>
</g>
<!-- NODO18&#45;&gt;NODO25 -->
<g id="edge23" class="edge">
<title>NODO18&#45;&gt;NODO25</title>
<path fill="none" stroke="black" d="M806.52,-215.7C805.88,-208.24 805.11,-199.32 804.4,-190.97"/>
<polygon fill="black" stroke="black" points="807.81,-190.77 803.47,-181.1 800.83,-191.37 807.81,-190.77"/>
</g>
<!-- NODO26 -->
<g id="node27" class="node">
<title>NODO26</title>
<ellipse fill="none" stroke="black" cx="878" cy="-162" rx="31.1" ry="18"/>
<text text-anchor="middle" x="878" y="-156.57" font-family="Times New Roman,serif" font-size="14.00">Valor</text>
</g>
<!-- NODO18&#45;&gt;NODO26 -->
<g id="edge24" class="edge">
<title>NODO18&#45;&gt;NODO26</title>
<path fill="none" stroke="black" d="M824.24,-216.76C833.41,-207.59 845.04,-195.96 855.12,-185.88"/>
<polygon fill="black" stroke="black" points="857.21,-188.73 861.81,-179.19 852.27,-183.79 857.21,-188.73"/>
</g>
<!-- NODO20 -->
<g id="node21" class="node">
<title>NODO20</title>
<ellipse fill="none" stroke="black" cx="622" cy="-90" rx="42.08" ry="18"/>
<text text-anchor="middle" x="622" y="-84.58" font-family="Times New Roman,serif" font-size="14.00">Llamada</text>
</g>
<!-- NODO19&#45;&gt;NODO20 -->
<g id="edge18" class="edge">
<title>NODO19&#45;&gt;NODO20</title>
<path fill="none" stroke="black" d="M689.26,-145.12C677.53,-135.68 662.47,-123.56 649.58,-113.19"/>
<polygon fill="black" stroke="black" points="652.05,-109.88 642.07,-106.34 647.66,-115.34 652.05,-109.88"/>
</g>
<!-- NODO22 -->
<g id="node23" class="node">
<title>NODO22</title>
<ellipse fill="none" stroke="black" cx="709" cy="-90" rx="27" ry="18"/>
<text text-anchor="middle" x="709" y="-84.58" font-family="Times New Roman,serif" font-size="14.00">&amp;&amp;</text>
</g>
<!-- NODO19&#45;&gt;NODO22 -->
<g id="edge19" class="edge">
<title>NODO19&#45;&gt;NODO22</title>
<path fill="none" stroke="black" d="M709,-143.7C709,-136.24 709,-127.32 709,-118.97"/>
<polygon fill="black" stroke="black" points="712.5,-119.1 709,-109.1 705.5,-119.1 712.5,-119.1"/>
</g>
<!-- NODO23 -->
<g id="node24" class="node">
<title>NODO23</title>
<ellipse fill="none" stroke="black" cx="785" cy="-90" rx="31.1" ry="18"/>
<text text-anchor="middle" x="785" y="-84.58" font-family="Times New Roman,serif" font-size="14.00">Valor</text>
</g>
<!-- NODO19&#45;&gt;NODO23 -->
<g id="edge20" class="edge">
<title>NODO19&#45;&gt;NODO23</title>
<path fill="none" stroke="black" d="M726.63,-144.76C736.83,-135.37 749.82,-123.41 760.95,-113.15"/>
<polygon fill="black" stroke="black" points="763.04,-116.07 768.02,-106.72 758.29,-110.92 763.04,-116.07"/>
</g>
<!-- NODO21 -->
<g id="node22" class="node">
<title>NODO21</title>
<ellipse fill="none" stroke="black" cx="622" cy="-18" rx="27" ry="18"/>
<text text-anchor="middle" x="622" y="-12.57" font-family="Times New Roman,serif" font-size="14.00">b</text>
</g>
<!-- NODO20&#45;&gt;NODO21 -->
<g id="edge16" class="edge">
<title>NODO20&#45;&gt;NODO21</title>
<path fill="none" stroke="black" d="M622,-71.7C622,-64.24 622,-55.32 622,-46.97"/>
<polygon fill="black" stroke="black" points="625.5,-47.1 622,-37.1 618.5,-47.1 625.5,-47.1"/>
</g>
<!-- NODO24 -->
<g id="node25" class="node">
<title>NODO24</title>
<ellipse fill="none" stroke="black" cx="785" cy="-18" rx="27.61" ry="18"/>
<text text-anchor="middle" x="785" y="-12.57" font-family="Times New Roman,serif" font-size="14.00">false</text>
</g>
<!-- NODO23&#45;&gt;NODO24 -->
<g id="edge17" class="edge">
<title>NODO23&#45;&gt;NODO24</title>
<path fill="none" stroke="black" d="M785,-71.7C785,-64.24 785,-55.32 785,-46.97"/>
<polygon fill="black" stroke="black" points="788.5,-47.1 785,-37.1 781.5,-47.1 788.5,-47.1"/>
</g>
<!-- NODO27 -->
<g id="node28" class="node">
<title>NODO27</title>
<ellipse fill="none" stroke="black" cx="878" cy="-90" rx="27.61" ry="18"/>
<text text-anchor="middle" x="878" y="-84.58" font-family="Times New Roman,serif" font-size="14.00">false</text>
</g>
<!-- NODO26&#45;&gt;NODO27 -->
<g id="edge21" class="edge">
<title>NODO26&#45;&gt;NODO27</title>
<path fill="none" stroke="black" d="M878,-143.7C878,-136.24 878,-127.32 878,-118.97"/>
<polygon fill="black" stroke="black" points="881.5,-119.1 878,-109.1 874.5,-119.1 881.5,-119.1"/>
</g>
<!-- NODO30 -->
<g id="node31" class="node">
<title>NODO30</title>
<ellipse fill="none" stroke="black" cx="958" cy="-162" rx="31.1" ry="18"/>
<text text-anchor="middle" x="958" y="-156.57" font-family="Times New Roman,serif" font-size="14.00">Valor</text>
</g>
<!-- NODO29&#45;&gt;NODO30 -->
<g id="edge27" class="edge">
<title>NODO29&#45;&gt;NODO30</title>
<path fill="none" stroke="black" d="M1011.76,-216.76C1002.59,-207.59 990.96,-195.96 980.88,-185.88"/>
<polygon fill="black" stroke="black" points="983.73,-183.79 974.19,-179.19 978.79,-188.73 983.73,-183.79"/>
</g>
<!-- NODO32 -->
<g id="node33" class="node">
<title>NODO32</title>
<ellipse fill="none" stroke="black" cx="1034" cy="-162" rx="27" ry="18"/>
<text text-anchor="middle" x="1034" y="-156.57" font-family="Times New Roman,serif" font-size="14.00">||</text>
</g>
<!-- NODO29&#45;&gt;NODO32 -->
<g id="edge28" class="edge">
<title>NODO29&#45;&gt;NODO32</title>
<path fill="none" stroke="black" d="M1029.48,-215.7C1030.12,-208.24 1030.89,-199.32 1031.6,-190.97"/>
<polygon fill="black" stroke="black" points="1035.17,-191.37 1032.53,-181.1 1028.19,-190.77 1035.17,-191.37"/>
</g>
<!-- NODO33 -->
<g id="node34" class="node">
<title>NODO33</title>
<ellipse fill="none" stroke="black" cx="1121" cy="-162" rx="42.08" ry="18"/>
<text text-anchor="middle" x="1121" y="-156.57" font-family="Times New Roman,serif" font-size="14.00">Llamada</text>
</g>
<!-- NODO29&#45;&gt;NODO33 -->
<g id="edge29" class="edge">
<title>NODO29&#45;&gt;NODO33</title>
<path fill="none" stroke="black" d="M1048.64,-217.46C1061.49,-207.79 1078.21,-195.21 1092.33,-184.58"/>
<polygon fill="black" stroke="black" points="1093.85,-187.06 1099.74,-178.25 1089.64,-181.47 1093.85,-187.06"/>
</g>
<!-- NODO31 -->
<g id="node32" class="node">
<title>NODO31</title>
<ellipse fill="none" stroke="black" cx="958" cy="-90" rx="27" ry="18"/>
<text text-anchor="middle" x="958" y="-84.58" font-family="Times New Roman,serif" font-size="14.00">true</text>
</g>
<!-- NODO30&#45;&gt;NODO31 -->
<g id="edge25" class="edge">
<title>NODO30&#45;&gt;NODO31</title>
<path fill="none" stroke="black" d="M958,-143.7C958,-136.24 958,-127.32 958,-118.97"/>
<polygon fill="black" stroke="black" points="961.5,-119.1 958,-109.1 954.5,-119.1 961.5,-119.1"/>
</g>
<!-- NODO34 -->
<g id="node35" class="node">
<title>NODO34</title>
<ellipse fill="none" stroke="black" cx="1121" cy="-90" rx="27" ry="18"/>
<text text-anchor="middle" x="1121" y="-84.58" font-family="Times New Roman,serif" font-size="14.00">b</text>
</g>
<!-- NODO33&#45;&gt;NODO34 -->
<g id="edge26" class="edge">
<title>NODO33&#45;&gt;NODO34</title>
<path fill="none" stroke="black" d="M1121,-143.7C1121,-136.24 1121,-127.32 1121,-118.97"/>
<polygon fill="black" stroke="black" points="1124.5,-119.1 1121,-109.1 1117.5,-119.1 1124.5,-119.1"/>
</g>
</g>
</svg>
